RobotoSerifMicro-HairlineWideItalic03ip.ufo
<glyph name="slash" format="2">
  <advance width="546"/>
  <unicode hex="002F"/>
  <outline>
    <contour>
      <point x="485" y="780" type="line"/>
      <point x="-53" y="-158" type="line"/>
      <point x="-4" y="-158" type="line"/>
      <point x="534" y="780" type="line"/>
    </contour>
  </outline>
</glyph>
<glyph name="underscore" format="2">
  <advance width="582"/>
  <unicode hex="005F"/>
  <outline>
    <contour>
      <point x="4" y="-108" type="line"/>
      <point x="-3" y="-142" type="line"/>
      <point x="603" y="-142" type="line"/>
      <point x="611" y="-108" type="line"/>
    </contour>
  </outline>
</glyph>
<glyph name="grave" format="2">
  <advance width="530"/>
  <unicode hex="0060"/>
  <anchor x="174" y="531" name="_top"/>
  <outline>
    <contour>
      <point x="218" y="788" type="curve" smooth="yes"/>
      <point x="284" y="679" type="line"/>
      <point x="280" y="661" type="line"/>
      <point x="258" y="661" type="line"/>
      <point x="151" y="768" type="line" smooth="yes"/>
      <point x="131" y="789"/>
      <point x="114" y="805"/>
      <point x="113" y="822" type="curve" smooth="yes"/>
      <point x="112" y="823"/>
      <point x="112" y="824"/>
      <point x="112" y="825" type="curve" smooth="yes"/>
      <point x="112" y="843"/>
      <point x="128" y="855"/>
      <point x="150" y="855" type="curve" smooth="yes"/>
      <point x="183" y="855"/>
      <point x="194" y="832"/>
    </contour>
  </outline>
</glyph>
<glyph name="currency" format="2">
  <advance width="680"/>
  <unicode hex="00A4"/>
  <outline>
    <contour>
      <point x="1" y="126" type="line"/>
      <point x="148" y="253" type="line"/>
      <point x="108" y="280" type="line"/>
      <point x="-34" y="161" type="line"/>
    </contour>
    <contour>
      <point x="29" y="597" type="line"/>
      <point x="127" y="483" type="line"/>
      <point x="172" y="506" type="line"/>
      <point x="69" y="627" type="line"/>
    </contour>
    <contour>
      <point x="260" y="225" type="curve" smooth="yes"/>
      <point x="173" y="225"/>
      <point x="121" y="283"/>
      <point x="114" y="350" type="curve" smooth="yes"/>
      <point x="114" y="356"/>
      <point x="113" y="363"/>
      <point x="113" y="369" type="curve" smooth="yes"/>
      <point x="113" y="450"/>
      <point x="167" y="522"/>
      <point x="259" y="522" type="curve" smooth="yes"/>
      <point x="347" y="522"/>
      <point x="399" y="464"/>
      <point x="406" y="397" type="curve" smooth="yes"/>
      <point x="407" y="391"/>
      <point x="407" y="384"/>
      <point x="407" y="378" type="curve" smooth="yes"/>
      <point x="407" y="297"/>
      <point x="354" y="225"/>
    </contour>
    <contour>
      <point x="263" y="183" type="curve" smooth="yes"/>
      <point x="373" y="183"/>
      <point x="467" y="278"/>
      <point x="467" y="374" type="curve" smooth="yes"/>
      <point x="467" y="379"/>
      <point x="467" y="384"/>
      <point x="466" y="389" type="curve" smooth="yes"/>
      <point x="456" y="487"/>
      <point x="363" y="564"/>
      <point x="257" y="564" type="curve" smooth="yes"/>
      <point x="146" y="564"/>
      <point x="53" y="469"/>
      <point x="53" y="373" type="curve" smooth="yes"/>
      <point x="53" y="368"/>
      <point x="53" y="363"/>
      <point x="53" y="358" type="curve" smooth="yes"/>
      <point x="64" y="261"/>
      <point x="157" y="183"/>
    </contour>
    <contour>
      <point x="448" y="119" type="line"/>
      <point x="488" y="149" type="line"/>
      <point x="391" y="263" type="line"/>
      <point x="346" y="240" type="line"/>
    </contour>
    <contour>
      <point x="556" y="582" type="line"/>
      <point x="521" y="617" type="line"/>
      <point x="372" y="504" type="line"/>
      <point x="414" y="477" type="line"/>
    </contour>
  </outline>
</glyph>
<glyph name="dieresis" format="2">
  <advance width="530"/>
  <unicode hex="00A8"/>
  <guideline x="258" y="711" angle="81" identifier="J8QtTUrMdF"/>
  <anchor x="229" y="526" name="_top"/>
  <outline>
    <contour>
      <point x="140" y="699" type="curve" smooth="yes"/>
      <point x="170" y="699"/>
      <point x="192" y="719"/>
      <point x="192" y="752" type="curve" smooth="yes"/>
      <point x="192" y="784"/>
      <point x="170" y="804"/>
      <point x="140" y="804" type="curve" smooth="yes"/>
      <point x="108" y="804"/>
      <point x="89" y="784"/>
      <point x="89" y="752" type="curve" smooth="yes"/>
      <point x="89" y="719"/>
      <point x="108" y="699"/>
    </contour>
    <contour>
      <point x="389" y="699" type="curve" smooth="yes"/>
      <point x="419" y="699"/>
      <point x="441" y="719"/>
      <point x="441" y="752" type="curve" smooth="yes"/>
      <point x="441" y="784"/>
      <point x="419" y="804"/>
      <point x="389" y="804" type="curve" smooth="yes"/>
      <point x="357" y="804"/>
      <point x="338" y="784"/>
      <point x="338" y="752" type="curve" smooth="yes"/>
      <point x="338" y="719"/>
      <point x="357" y="699"/>
    </contour>
  </outline>
</glyph>
<glyph name="degree" format="2">
  <advance width="521"/>
  <unicode hex="00B0"/>
  <outline>
    <contour>
      <point x="213" y="426" type="curve" smooth="yes"/>
      <point x="133" y="426"/>
      <point x="74" y="473"/>
      <point x="65" y="561" type="curve" smooth="yes"/>
      <point x="64" y="568"/>
      <point x="64" y="575"/>
      <point x="64" y="582" type="curve" smooth="yes"/>
      <point x="64" y="658"/>
      <point x="111" y="698"/>
      <point x="185" y="698" type="curve" smooth="yes"/>
      <point x="266" y="698"/>
      <point x="324" y="650"/>
      <point x="333" y="561" type="curve" smooth="yes"/>
      <point x="334" y="554"/>
      <point x="334" y="547"/>
      <point x="334" y="540" type="curve" smooth="yes"/>
      <point x="334" y="466"/>
      <point x="288" y="426"/>
    </contour>
    <contour>
      <point x="217" y="389" type="curve" smooth="yes"/>
      <point x="316" y="389"/>
      <point x="388" y="447"/>
      <point x="388" y="541" type="curve" smooth="yes"/>
      <point x="388" y="547"/>
      <point x="388" y="554"/>
      <point x="387" y="561" type="curve" smooth="yes"/>
      <point x="376" y="668"/>
      <point x="287" y="735"/>
      <point x="181" y="735" type="curve" smooth="yes"/>
      <point x="83" y="735"/>
      <point x="10" y="677"/>
      <point x="10" y="582" type="curve" smooth="yes"/>
      <point x="10" y="575"/>
      <point x="10" y="568"/>
      <point x="11" y="561" type="curve" smooth="yes"/>
      <point x="22" y="455"/>
      <point x="112" y="389"/>
    </contour>
  </outline>
</glyph>
<glyph name="Thorn" format="2">
  <advance width="697"/>
  <unicode hex="00DE"/>
  <outline>
    <contour>
      <point x="208" y="544" type="line"/>
      <point x="365" y="544" type="line" smooth="yes"/>
      <point x="480" y="544"/>
      <point x="545" y="475"/>
      <point x="554" y="392" type="curve" smooth="yes"/>
      <point x="555" y="382"/>
      <point x="555" y="372"/>
      <point x="555" y="362" type="curve" smooth="yes"/>
      <point x="555" y="253"/>
      <point x="487" y="184"/>
      <point x="357" y="184" type="curve" smooth="yes"/>
      <point x="127" y="184" type="line"/>
      <point x="120" y="148" type="line"/>
      <point x="355" y="148" type="line" smooth="yes"/>
      <point x="510" y="148"/>
      <point x="609" y="233"/>
      <point x="609" y="363" type="curve" smooth="yes"/>
      <point x="609" y="372"/>
      <point x="609" y="381"/>
      <point x="608" y="391" type="curve" smooth="yes"/>
      <point x="597" y="493"/>
      <point x="509" y="582"/>
      <point x="360" y="582" type="curve" smooth="yes"/>
      <point x="198" y="582" type="line"/>
    </contour>
    <contour>
      <point x="91" y="80" type="line" smooth="yes"/>
      <point x="86" y="51"/>
      <point x="46" y="44"/>
      <point x="-6" y="44" type="curve" smooth="yes"/>
      <point x="-18" y="44" type="line"/>
      <point x="-25" y="0" type="line"/>
      <point x="246" y="0" type="line"/>
      <point x="253" y="44" type="line"/>
      <point x="237" y="44" type="line" smooth="yes"/>
      <point x="187" y="44"/>
      <point x="138" y="47"/>
      <point x="138" y="54" type="curve" smooth="yes"/>
      <point x="138" y="54"/>
      <point x="138" y="54"/>
      <point x="138" y="54" type="curve" smooth="yes"/>
      <point x="233" y="656" type="line" smooth="yes"/>
      <point x="234" y="663"/>
      <point x="286" y="666"/>
      <point x="326" y="666" type="curve" smooth="yes"/>
      <point x="336" y="666" type="line"/>
      <point x="343" y="710" type="line"/>
      <point x="89" y="710" type="line"/>
      <point x="82" y="666" type="line"/>
      <point x="93" y="666" type="line" smooth="yes"/>
      <point x="142" y="666"/>
      <point x="178" y="660"/>
      <point x="178" y="634" type="curve" smooth="yes"/>
      <point x="178" y="633"/>
      <point x="178" y="631"/>
      <point x="178" y="630" type="curve" smooth="yes"/>
    </contour>
  </outline>
</glyph>
<glyph name="itilde" format="2">
  <advance width="350"/>
  <unicode hex="0129"/>
  <outline>
    <contour>
      <point x="211" y="669" type="curve" smooth="yes"/>
      <point x="259" y="669"/>
      <point x="280" y="697"/>
      <point x="308" y="827" type="curve"/>
      <point x="268" y="835" type="line"/>
      <point x="249" y="743"/>
      <point x="240" y="710"/>
      <point x="209" y="710" type="curve" smooth="yes"/>
      <point x="164" y="710"/>
      <point x="177" y="830"/>
      <point x="92" y="830" type="curve" smooth="yes"/>
      <point x="41" y="830"/>
      <point x="15" y="798"/>
      <point x="-6" y="677" type="curve"/>
      <point x="34" y="668" type="line"/>
      <point x="51" y="754"/>
      <point x="58" y="788"/>
      <point x="88" y="788" type="curve" smooth="yes"/>
      <point x="139" y="788"/>
      <point x="123" y="669"/>
    </contour>
    <contour>
      <point x="132" y="127" type="curve" smooth="yes"/>
      <point x="147" y="565" type="line"/>
      <point x="1" y="565" type="line"/>
      <point x="-2" y="529" type="line"/>
      <point x="10" y="527" type="line" smooth="yes"/>
      <point x="64" y="516"/>
      <point x="89" y="510"/>
      <point x="91" y="492" type="curve" smooth="yes"/>
      <point x="91" y="492"/>
      <point x="91" y="492"/>
      <point x="91" y="491" type="curve" smooth="yes"/>
      <point x="91" y="491"/>
      <point x="91" y="491"/>
      <point x="90" y="490" type="curve" smooth="yes"/>
      <point x="83" y="161" type="line" smooth="yes"/>
      <point x="80" y="137"/>
      <point x="78" y="116"/>
      <point x="78" y="96" type="curve" smooth="yes"/>
      <point x="78" y="87"/>
      <point x="79" y="78"/>
      <point x="80" y="70" type="curve" smooth="yes"/>
      <point x="80" y="64"/>
      <point x="81" y="59"/>
      <point x="81" y="54" type="curve" smooth="yes"/>
      <point x="89" y="19"/>
      <point x="122" y="0"/>
      <point x="164" y="0" type="curve" smooth="yes"/>
      <point x="196" y="0"/>
      <point x="228" y="0"/>
      <point x="260" y="0" type="curve"/>
      <point x="260" y="40" type="line"/>
      <point x="230" y="40"/>
      <point x="201" y="40"/>
      <point x="171" y="40" type="curve" smooth="yes"/>
      <point x="149" y="40"/>
      <point x="133" y="48"/>
      <point x="129" y="67" type="curve" smooth="yes"/>
      <point x="129" y="70"/>
      <point x="127" y="73"/>
      <point x="127" y="76" type="curve" smooth="yes"/>
      <point x="127" y="78"/>
      <point x="127" y="80"/>
      <point x="127" y="82" type="curve" smooth="yes"/>
      <point x="127" y="91"/>
      <point x="128" y="104"/>
    </contour>
  </outline>
</glyph>
<glyph name="Schwa" format="2">
  <advance width="786"/>
  <unicode hex="018F"/>
  <outline>
    <contour>
      <point x="342" y="-25" type="curve" smooth="yes"/>
      <point x="581" y="-25"/>
      <point x="681" y="182"/>
      <point x="681" y="385" type="curve" smooth="yes"/>
      <point x="681" y="406"/>
      <point x="680" y="428"/>
      <point x="678" y="449" type="curve" smooth="yes"/>
      <point x="658" y="637"/>
      <point x="552" y="731"/>
      <point x="364" y="731" type="curve" smooth="yes"/>
      <point x="231" y="731"/>
      <point x="141" y="684"/>
      <point x="71" y="605" type="curve"/>
      <point x="113" y="573" type="line"/>
      <point x="172" y="642"/>
      <point x="241" y="690"/>
      <point x="368" y="690" type="curve" smooth="yes"/>
      <point x="525" y="690"/>
      <point x="606" y="613"/>
      <point x="623" y="445" type="curve" smooth="yes"/>
      <point x="625" y="424"/>
      <point x="627" y="402"/>
      <point x="627" y="380" type="curve" smooth="yes"/>
      <point x="627" y="204"/>
      <point x="552" y="14"/>
      <point x="337" y="14" type="curve" smooth="yes"/>
      <point x="167" y="14"/>
      <point x="104" y="112"/>
      <point x="91" y="234" type="curve" smooth="yes"/>
      <point x="90" y="244"/>
      <point x="90" y="256"/>
      <point x="90" y="268" type="curve" smooth="yes"/>
      <point x="90" y="289"/>
      <point x="92" y="313"/>
      <point x="95" y="338" type="curve"/>
      <point x="72" y="333" type="line"/>
      <point x="625" y="333" type="line"/>
      <point x="634" y="370" type="line"/>
      <point x="44" y="370" type="line"/>
      <point x="38" y="336"/>
      <point x="35" y="303"/>
      <point x="35" y="272" type="curve" smooth="yes"/>
      <point x="35" y="256"/>
      <point x="36" y="241"/>
      <point x="37" y="226" type="curve" smooth="yes"/>
      <point x="53" y="79"/>
      <point x="143" y="-25"/>
    </contour>
  </outline>
</glyph>
<glyph name="tilde" format="2">
  <advance width="530"/>
  <unicode hex="02DC"/>
  <anchor x="211" y="516" name="_top"/>
  <outline>
    <contour>
      <point x="255" y="669" type="curve" smooth="yes"/>
      <point x="303" y="669"/>
      <point x="326" y="697"/>
      <point x="354" y="827" type="curve"/>
      <point x="315" y="835" type="line"/>
      <point x="296" y="743"/>
      <point x="284" y="710"/>
      <point x="253" y="710" type="curve" smooth="yes"/>
      <point x="204" y="710"/>
      <point x="207" y="830"/>
      <point x="119" y="830" type="curve" smooth="yes"/>
      <point x="68" y="830"/>
      <point x="39" y="798"/>
      <point x="18" y="677" type="curve"/>
      <point x="57" y="668" type="line"/>
      <point x="75" y="754"/>
      <point x="85" y="788"/>
      <point x="115" y="788" type="curve" smooth="yes"/>
      <point x="171" y="788"/>
      <point x="164" y="669"/>
    </contour>
  </outline>
</glyph>
<glyph name="fraction" format="2">
  <advance width="147"/>
  <unicode hex="2044"/>
  <outline>
    <contour>
      <point x="357" y="710" type="line"/>
      <point x="-340" y="0" type="line"/>
      <point x="-284" y="0" type="line"/>
      <point x="413" y="710" type="line"/>
    </contour>
  </outline>
</glyph>
<glyph name="peseta" format="2">
  <advance width="680"/>
  <unicode hex="20A7"/>
  <outline>
    <contour>
      <point x="-67" y="0" type="line"/>
      <point x="90" y="0" type="line"/>
      <point x="96" y="36" type="line"/>
      <point x="84" y="36" type="line" smooth="yes"/>
      <point x="66" y="36"/>
      <point x="35" y="39"/>
      <point x="35" y="46" type="curve" smooth="yes"/>
      <point x="35" y="46"/>
      <point x="35" y="46"/>
      <point x="35" y="46" type="curve" smooth="yes"/>
      <point x="68" y="251" type="line"/>
      <point x="112" y="251" type="line" smooth="yes"/>
      <point x="262" y="251"/>
      <point x="338" y="359"/>
      <point x="338" y="502" type="curve" smooth="yes"/>
      <point x="338" y="516"/>
      <point x="337" y="532"/>
      <point x="336" y="547" type="curve" smooth="yes"/>
      <point x="326" y="637"/>
      <point x="268" y="710"/>
      <point x="148" y="710" type="curve" smooth="yes"/>
      <point x="45" y="710" type="line"/>
      <point x="39" y="674" type="line"/>
      <point x="44" y="674" type="line" smooth="yes"/>
      <point x="65" y="674"/>
      <point x="79" y="669"/>
      <point x="79" y="648" type="curve" smooth="yes"/>
      <point x="79" y="645"/>
      <point x="79" y="642"/>
      <point x="78" y="638" type="curve" smooth="yes"/>
      <point x="-11" y="72" type="line" smooth="yes"/>
      <point x="-16" y="43"/>
      <point x="-33" y="36"/>
      <point x="-56" y="36" type="curve" smooth="yes"/>
      <point x="-61" y="36" type="line"/>
    </contour>
    <contour>
      <point x="151" y="674" type="line" smooth="yes"/>
      <point x="236" y="674"/>
      <point x="278" y="623"/>
      <point x="286" y="544" type="curve" smooth="yes"/>
      <point x="287" y="532"/>
      <point x="288" y="517"/>
      <point x="288" y="502" type="curve" smooth="yes"/>
      <point x="288" y="489"/>
      <point x="287" y="475"/>
      <point x="285" y="462" type="curve" smooth="yes"/>
      <point x="270" y="354"/>
      <point x="219" y="287"/>
      <point x="112" y="287" type="curve" smooth="yes"/>
      <point x="74" y="287" type="line"/>
      <point x="133" y="674" type="line"/>
    </contour>
    <contour>
      <point x="423" y="539" type="line"/>
      <point x="358" y="125" type="line" smooth="yes"/>
      <point x="354" y="99"/>
      <point x="352" y="86"/>
      <point x="352" y="73" type="curve" smooth="yes"/>
      <point x="352" y="68"/>
      <point x="352" y="63"/>
      <point x="353" y="57" type="curve"/>
      <point x="357" y="22"/>
      <point x="384" y="0"/>
      <point x="448" y="0" type="curve" smooth="yes"/>
      <point x="484" y="0"/>
      <point x="512" y="0"/>
      <point x="522" y="0" type="curve"/>
      <point x="529" y="34" type="line"/>
      <point x="518" y="34"/>
      <point x="492" y="34"/>
      <point x="444" y="34" type="curve" smooth="yes"/>
      <point x="421" y="34"/>
      <point x="403" y="39"/>
      <point x="400" y="62" type="curve"/>
      <point x="400" y="65"/>
      <point x="400" y="68"/>
      <point x="400" y="71" type="curve" smooth="yes"/>
      <point x="400" y="79"/>
      <point x="401" y="88"/>
      <point x="404" y="109" type="curve" smooth="yes"/>
      <point x="499" y="710" type="line"/>
      <point x="463" y="710" type="line"/>
      <point x="449" y="624" type="line" smooth="yes"/>
      <point x="440" y="566"/>
      <point x="422" y="551"/>
      <point x="367" y="551" type="curve" smooth="yes"/>
      <point x="313" y="551" type="line"/>
      <point x="307" y="519" type="line"/>
      <point x="588" y="519" type="line"/>
      <point x="595" y="555" type="line"/>
      <point x="463" y="555" type="line"/>
    </contour>
  </outline>
</glyph>
<glyph name="manat" format="2">
  <advance width="594"/>
  <unicode hex="20BC"/>
  <outline>
    <contour>
      <point x="314" y="760" type="line"/>
      <point x="212" y="124" type="line"/>
      <point x="252" y="124" type="line"/>
      <point x="353" y="760" type="line"/>
    </contour>
    <contour>
      <point x="306" y="604" type="curve" smooth="yes"/>
      <point x="98" y="604"/>
      <point x="50" y="462"/>
      <point x="-34" y="0" type="curve"/>
      <point x="26" y="0" type="line"/>
      <point x="107" y="450"/>
      <point x="131" y="571"/>
      <point x="308" y="571" type="curve" smooth="yes"/>
      <point x="407" y="571"/>
      <point x="442" y="530"/>
      <point x="442" y="403" type="curve" smooth="yes"/>
      <point x="442" y="315"/>
      <point x="425" y="186"/>
      <point x="401" y="0" type="curve"/>
      <point x="461" y="0" type="line"/>
      <point x="482" y="150"/>
      <point x="494" y="267"/>
      <point x="494" y="356" type="curve" smooth="yes"/>
      <point x="494" y="538"/>
      <point x="442" y="604"/>
    </contour>
  </outline>
</glyph>
<glyph name="infinity" format="2">
  <advance width="850"/>
  <unicode hex="221E"/>
  <outline>
    <contour>
      <point x="368" y="336" type="curve" smooth="yes"/>
      <point x="307" y="467"/>
      <point x="270" y="518"/>
      <point x="189" y="518" type="curve" smooth="yes"/>
      <point x="104" y="518"/>
      <point x="58" y="460"/>
      <point x="58" y="370" type="curve" smooth="yes"/>
      <point x="58" y="361"/>
      <point x="58" y="351"/>
      <point x="59" y="340" type="curve" smooth="yes"/>
      <point x="69" y="249"/>
      <point x="125" y="193"/>
      <point x="206" y="193" type="curve" smooth="yes"/>
      <point x="311" y="193"/>
      <point x="333" y="281"/>
      <point x="367" y="351" type="curve"/>
      <point x="400" y="344" type="line"/>
      <point x="365" y="255"/>
      <point x="316" y="150"/>
      <point x="199" y="150" type="curve" smooth="yes"/>
      <point x="95" y="150"/>
      <point x="29" y="216"/>
      <point x="17" y="330" type="curve" smooth="yes"/>
      <point x="16" y="342"/>
      <point x="15" y="354"/>
      <point x="15" y="366" type="curve" smooth="yes"/>
      <point x="15" y="482"/>
      <point x="80" y="561"/>
      <point x="189" y="561" type="curve" smooth="yes"/>
      <point x="304" y="561"/>
      <point x="354" y="490"/>
      <point x="408" y="375" type="curve" smooth="yes"/>
      <point x="468" y="243"/>
      <point x="506" y="193"/>
      <point x="587" y="193" type="curve" smooth="yes"/>
      <point x="671" y="193"/>
      <point x="718" y="251"/>
      <point x="718" y="341" type="curve" smooth="yes"/>
      <point x="718" y="351"/>
      <point x="717" y="361"/>
      <point x="716" y="371" type="curve" smooth="yes"/>
      <point x="706" y="462"/>
      <point x="651" y="518"/>
      <point x="570" y="518" type="curve" smooth="yes"/>
      <point x="465" y="518"/>
      <point x="442" y="429"/>
      <point x="408" y="360" type="curve"/>
      <point x="376" y="366" type="line"/>
      <point x="410" y="456"/>
      <point x="459" y="561"/>
      <point x="576" y="561" type="curve" smooth="yes"/>
      <point x="679" y="561"/>
      <point x="746" y="495"/>
      <point x="758" y="381" type="curve" smooth="yes"/>
      <point x="759" y="369"/>
      <point x="760" y="357"/>
      <point x="760" y="345" type="curve" smooth="yes"/>
      <point x="760" y="229"/>
      <point x="695" y="150"/>
      <point x="585" y="150" type="curve" smooth="yes"/>
      <point x="473" y="150"/>
      <point x="422" y="221"/>
    </contour>
  </outline>
</glyph>
<glyph name="hook" format="2">
  <advance width="530"/>
  <unicode hex="2440"/>
  <anchor x="191" y="517" name="_top"/>
  <outline>
    <contour>
      <point x="26" y="797" type="line"/>
      <point x="43" y="884"/>
      <point x="101" y="921"/>
      <point x="191" y="921" type="curve" smooth="yes"/>
      <point x="294" y="921"/>
      <point x="342" y="880"/>
      <point x="348" y="817" type="curve" smooth="yes"/>
      <point x="349" y="813"/>
      <point x="349" y="808"/>
      <point x="349" y="804" type="curve" smooth="yes"/>
      <point x="349" y="731"/>
      <point x="276" y="706"/>
      <point x="179" y="705" type="curve"/>
      <point x="219" y="725" type="line"/>
      <point x="205" y="646" type="line"/>
      <point x="149" y="646" type="line"/>
      <point x="163" y="738" type="line"/>
      <point x="233" y="741"/>
      <point x="292" y="744"/>
      <point x="292" y="805" type="curve" smooth="yes"/>
      <point x="292" y="809"/>
      <point x="292" y="813"/>
      <point x="291" y="817" type="curve" smooth="yes"/>
      <point x="286" y="862"/>
      <point x="260" y="884"/>
      <point x="195" y="884" type="curve" smooth="yes"/>
      <point x="135" y="884"/>
      <point x="101" y="861"/>
      <point x="85" y="797" type="curve"/>
    </contour>
  </outline>
</glyph>
<glyph name="backslash.uc" format="2">
  <advance width="585"/>
  <outline>
    <contour>
      <point x="73" y="760" type="line"/>
      <point x="519" y="-60" type="line"/>
      <point x="474" y="-60" type="line"/>
      <point x="27" y="760" type="line"/>
    </contour>
  </outline>
</glyph>
<glyph name="breve_tilde.uc" format="2">
  <advance width="530"/>
  <anchor x="226" y="694" name="_top"/>
  <outline>
    <contour>
      <point x="125" y="1092" type="curve" smooth="yes"/>
      <point x="174" y="1092"/>
      <point x="184" y="998"/>
      <point x="268" y="998" type="curve" smooth="yes"/>
      <point x="316" y="998"/>
      <point x="347" y="1033"/>
      <point x="375" y="1132" type="curve"/>
      <point x="333" y="1146" type="line"/>
      <point x="315" y="1090"/>
      <point x="299" y="1046"/>
      <point x="267" y="1046" type="curve" smooth="yes"/>
      <point x="221" y="1046"/>
      <point x="208" y="1141"/>
      <point x="127" y="1141" type="curve" smooth="yes"/>
      <point x="71" y="1141"/>
      <point x="48" y="1108"/>
      <point x="21" y="1010" type="curve"/>
      <point x="63" y="997" type="line"/>
      <point x="81" y="1063"/>
      <point x="97" y="1092"/>
    </contour>
    <contour>
      <point x="186" y="794" type="curve" smooth="yes"/>
      <point x="73" y="794"/>
      <point x="29" y="830"/>
      <point x="22" y="895" type="curve" smooth="yes"/>
      <point x="21" y="902"/>
      <point x="21" y="910"/>
      <point x="21" y="918" type="curve" smooth="yes"/>
      <point x="21" y="926"/>
      <point x="21" y="935"/>
      <point x="22" y="947" type="curve"/>
      <point x="62" y="947" type="line"/>
      <point x="64" y="871"/>
      <point x="81" y="847"/>
      <point x="185" y="847" type="curve" smooth="yes"/>
      <point x="269" y="847"/>
      <point x="294" y="860"/>
      <point x="304" y="947" type="curve"/>
      <point x="344" y="947" type="line"/>
      <point x="343" y="842"/>
      <point x="302" y="794"/>
    </contour>
  </outline>
</glyph>
<glyph name="eight.oldprop" format="2">
  <advance width="583"/>
  <outline>
    <contour>
      <point x="265" y="25" type="curve" smooth="yes"/>
      <point x="142" y="25"/>
      <point x="59" y="88"/>
      <point x="49" y="179" type="curve" smooth="yes"/>
      <point x="49" y="184"/>
      <point x="48" y="190"/>
      <point x="48" y="196" type="curve" smooth="yes"/>
      <point x="48" y="207"/>
      <point x="49" y="219"/>
      <point x="51" y="228" type="curve" smooth="yes"/>
      <point x="67" y="326"/>
      <point x="136" y="359"/>
      <point x="232" y="359" type="curve" smooth="yes"/>
      <point x="333" y="359"/>
      <point x="440" y="306"/>
      <point x="450" y="208" type="curve" smooth="yes"/>
      <point x="451" y="201"/>
      <point x="451" y="192"/>
      <point x="451" y="183" type="curve" smooth="yes"/>
      <point x="451" y="172"/>
      <point x="451" y="161"/>
      <point x="449" y="152" type="curve" smooth="yes"/>
      <point x="434" y="66"/>
      <point x="367" y="25"/>
    </contour>
    <contour>
      <point x="310" y="394" type="curve" smooth="yes"/>
      <point x="200" y="394"/>
      <point x="134" y="457"/>
      <point x="125" y="538" type="curve" smooth="yes"/>
      <point x="125" y="542"/>
      <point x="125" y="547"/>
      <point x="125" y="551" type="curve" smooth="yes"/>
      <point x="125" y="562"/>
      <point x="126" y="574"/>
      <point x="128" y="585" type="curve" smooth="yes"/>
      <point x="139" y="657"/>
      <point x="193" y="692"/>
      <point x="286" y="692" type="curve" smooth="yes"/>
      <point x="391" y="692"/>
      <point x="457" y="646"/>
      <point x="466" y="558" type="curve" smooth="yes"/>
      <point x="467" y="552"/>
      <point x="467" y="543"/>
      <point x="467" y="534" type="curve" smooth="yes"/>
      <point x="467" y="526"/>
      <point x="467" y="517"/>
      <point x="466" y="510" type="curve" smooth="yes"/>
      <point x="453" y="428"/>
      <point x="390" y="394"/>
    </contour>
    <contour>
      <point x="264" y="-11" type="curve" smooth="yes"/>
      <point x="418" y="-11"/>
      <point x="508" y="68"/>
      <point x="508" y="177" type="curve" smooth="yes"/>
      <point x="508" y="184"/>
      <point x="508" y="191"/>
      <point x="507" y="198" type="curve" smooth="yes"/>
      <point x="498" y="290"/>
      <point x="412" y="348"/>
      <point x="339" y="371" type="curve"/>
      <point x="348" y="358" type="line"/>
      <point x="352" y="387" type="line"/>
      <point x="341" y="371" type="line"/>
      <point x="440" y="374"/>
      <point x="520" y="432"/>
      <point x="520" y="535" type="curve" smooth="yes"/>
      <point x="520" y="542"/>
      <point x="519" y="549"/>
      <point x="518" y="557" type="curve" smooth="yes"/>
      <point x="508" y="656"/>
      <point x="418" y="728"/>
      <point x="285" y="728" type="curve" smooth="yes"/>
      <point x="153" y="728"/>
      <point x="72" y="661"/>
      <point x="72" y="561" type="curve" smooth="yes"/>
      <point x="72" y="555"/>
      <point x="72" y="548"/>
      <point x="73" y="541" type="curve" smooth="yes"/>
      <point x="83" y="449"/>
      <point x="151" y="405"/>
      <point x="213" y="385" type="curve"/>
      <point x="200" y="404" type="line"/>
      <point x="195" y="376" type="line"/>
      <point x="205" y="387" type="line"/>
      <point x="88" y="380"/>
      <point x="-9" y="322"/>
      <point x="-9" y="208" type="curve" smooth="yes"/>
      <point x="-9" y="200"/>
      <point x="-8" y="193"/>
      <point x="-7" y="185" type="curve" smooth="yes"/>
      <point x="6" y="58"/>
      <point x="120" y="-11"/>
    </contour>
  </outline>
</glyph>
<glyph name="five.midprop" format="2">
  <advance width="590"/>
  <outline>
    <contour>
      <point x="-25" y="104" type="curve"/>
      <point x="22" y="119" type="line"/>
      <point x="61" y="45"/>
      <point x="124" y="-8"/>
      <point x="246" y="-8" type="curve" smooth="yes"/>
      <point x="378" y="-8"/>
      <point x="434" y="101"/>
      <point x="434" y="213" type="curve" smooth="yes"/>
      <point x="434" y="225"/>
      <point x="433" y="237"/>
      <point x="432" y="249" type="curve" smooth="yes"/>
      <point x="421" y="350"/>
      <point x="351" y="397"/>
      <point x="277" y="397" type="curve" smooth="yes"/>
      <point x="188" y="397"/>
      <point x="155" y="354"/>
      <point x="114" y="303" type="curve"/>
      <point x="62" y="303" type="line"/>
      <point x="121" y="675" type="line"/>
      <point x="497" y="675" type="line"/>
      <point x="475" y="631" type="line"/>
      <point x="140" y="631" type="line"/>
      <point x="157" y="655" type="line"/>
      <point x="105" y="318" type="line"/>
      <point x="92" y="313" type="line"/>
      <point x="140" y="384"/>
      <point x="196" y="438"/>
      <point x="279" y="438" type="curve" smooth="yes"/>
      <point x="400" y="438"/>
      <point x="475" y="361"/>
      <point x="487" y="251" type="curve" smooth="yes"/>
      <point x="488" y="238"/>
      <point x="489" y="225"/>
      <point x="489" y="212" type="curve" smooth="yes"/>
      <point x="489" y="67"/>
      <point x="400" y="-48"/>
      <point x="246" y="-48" type="curve" smooth="yes"/>
      <point x="89" y="-48"/>
      <point x="13" y="29"/>
    </contour>
  </outline>
</glyph>
<glyph name="five.oldprop" format="2">
  <advance width="584"/>
  <outline>
    <contour>
      <point x="-29" y="83" type="curve"/>
      <point x="18" y="99" type="line"/>
      <point x="56" y="25"/>
      <point x="118" y="-32"/>
      <point x="240" y="-32" type="curve" smooth="yes"/>
      <point x="371" y="-32"/>
      <point x="428" y="78"/>
      <point x="428" y="193" type="curve" smooth="yes"/>
      <point x="428" y="205"/>
      <point x="427" y="218"/>
      <point x="426" y="230" type="curve" smooth="yes"/>
      <point x="415" y="331"/>
      <point x="344" y="379"/>
      <point x="271" y="379" type="curve" smooth="yes"/>
      <point x="182" y="379"/>
      <point x="149" y="335"/>
      <point x="108" y="284" type="curve"/>
      <point x="56" y="284" type="line"/>
      <point x="115" y="657" type="line"/>
      <point x="492" y="657" type="line"/>
      <point x="469" y="613" type="line"/>
      <point x="135" y="613" type="line"/>
      <point x="152" y="637" type="line"/>
      <point x="98" y="300" type="line"/>
      <point x="87" y="294" type="line"/>
      <point x="135" y="365"/>
      <point x="190" y="419"/>
      <point x="273" y="419" type="curve" smooth="yes"/>
      <point x="394" y="419"/>
      <point x="469" y="340"/>
      <point x="481" y="230" type="curve" smooth="yes"/>
      <point x="482" y="216"/>
      <point x="483" y="203"/>
      <point x="483" y="190" type="curve" smooth="yes"/>
      <point x="483" y="43"/>
      <point x="395" y="-72"/>
      <point x="241" y="-72" type="curve" smooth="yes"/>
      <point x="86" y="-72"/>
      <point x="9" y="8"/>
    </contour>
  </outline>
</glyph>
<glyph name="four.midprop" format="2">
  <advance width="633"/>
  <outline>
    <contour>
      <point x="-14" y="165" type="line"/>
      <point x="545" y="165" type="line"/>
      <point x="552" y="206" type="line"/>
      <point x="24" y="206" type="line"/>
      <point x="21" y="186" type="line"/>
      <point x="452" y="670" type="line"/>
      <point x="444" y="675" type="line"/>
      <point x="405" y="675" type="line"/>
      <point x="-5" y="218" type="line"/>
    </contour>
    <contour>
      <point x="371" y="-40" type="line"/>
      <point x="486" y="675" type="line"/>
      <point x="421" y="675" type="line"/>
      <point x="435" y="663" type="line"/>
      <point x="323" y="-40" type="line"/>
    </contour>
  </outline>
</glyph>
<glyph name="four.oldtab" format="2">
  <advance width="680"/>
  <outline>
    <contour>
      <point x="-8" y="133" type="line"/>
      <point x="512" y="133" type="line"/>
      <point x="519" y="174" type="line"/>
      <point x="29" y="174" type="line"/>
      <point x="27" y="155" type="line"/>
      <point x="431" y="651" type="line"/>
      <point x="424" y="657" type="line"/>
      <point x="385" y="657" type="line"/>
      <point x="0" y="186" type="line"/>
    </contour>
    <contour>
      <point x="352" y="-65" type="line"/>
      <point x="467" y="657" type="line"/>
      <point x="402" y="657" type="line"/>
      <point x="416" y="645" type="line"/>
      <point x="303" y="-65" type="line"/>
    </contour>
  </outline>
</glyph>
<glyph name="kip.proportional" format="2">
  <advance width="638"/>
  <outline>
    <contour>
      <point x="-17" y="0" type="line"/>
      <point x="168" y="0" type="line"/>
      <point x="175" y="36" type="line"/>
      <point x="166" y="36" type="line" smooth="yes"/>
      <point x="135" y="36"/>
      <point x="109" y="39"/>
      <point x="109" y="46" type="curve" smooth="yes"/>
      <point x="109" y="46"/>
      <point x="109" y="46"/>
      <point x="109" y="46" type="curve" smooth="yes"/>
      <point x="205" y="664" type="line" smooth="yes"/>
      <point x="206" y="671"/>
      <point x="233" y="674"/>
      <point x="264" y="674" type="curve" smooth="yes"/>
      <point x="274" y="674" type="line"/>
      <point x="281" y="710" type="line"/>
      <point x="96" y="710" type="line"/>
      <point x="89" y="674" type="line"/>
      <point x="101" y="674" type="line" smooth="yes"/>
      <point x="130" y="674"/>
      <point x="151" y="668"/>
      <point x="151" y="646" type="curve" smooth="yes"/>
      <point x="151" y="643"/>
      <point x="150" y="641"/>
      <point x="150" y="638" type="curve" smooth="yes"/>
      <point x="62" y="72" type="line" smooth="yes"/>
      <point x="57" y="43"/>
      <point x="34" y="36"/>
      <point x="2" y="36" type="curve" smooth="yes"/>
      <point x="-10" y="36" type="line"/>
    </contour>
    <contour>
      <point x="40" y="391" type="line"/>
      <point x="33" y="357" type="line"/>
      <point x="502" y="357" type="line"/>
      <point x="509" y="391" type="line"/>
    </contour>
    <contour>
      <point x="359" y="0" type="line"/>
      <point x="539" y="0" type="line"/>
      <point x="546" y="36" type="line"/>
      <point x="533" y="36" type="line" smooth="yes"/>
      <point x="505" y="36"/>
      <point x="493" y="42"/>
      <point x="476" y="69" type="curve" smooth="yes"/>
      <point x="271" y="378" type="line"/>
      <point x="270" y="364" type="line"/>
      <point x="537" y="645" type="line" smooth="yes"/>
      <point x="561" y="671"/>
      <point x="580" y="674"/>
      <point x="599" y="674" type="curve" smooth="yes"/>
      <point x="615" y="674" type="line"/>
      <point x="622" y="710" type="line"/>
      <point x="446" y="710" type="line"/>
      <point x="439" y="674" type="line"/>
      <point x="447" y="674" type="line" smooth="yes"/>
      <point x="475" y="674"/>
      <point x="504" y="671"/>
      <point x="504" y="664" type="curve" smooth="yes"/>
      <point x="504" y="664"/>
      <point x="504" y="664"/>
      <point x="504" y="664" type="curve"/>
      <point x="228" y="371" type="line"/>
      <point x="234" y="357" type="line"/>
      <point x="434" y="46" type="line"/>
      <point x="434" y="39"/>
      <point x="405" y="36"/>
      <point x="375" y="36" type="curve" smooth="yes"/>
      <point x="366" y="36" type="line"/>
    </contour>
  </outline>
</glyph>
<glyph name="manat.proportional" format="2">
  <advance width="703"/>
  <outline>
    <contour>
      <point x="373" y="760" type="line"/>
      <point x="272" y="124" type="line"/>
      <point x="311" y="124" type="line"/>
      <point x="413" y="760" type="line"/>
    </contour>
    <contour>
      <point x="-17" y="0" type="curve"/>
      <point x="43" y="0" type="line"/>
      <point x="127" y="452"/>
      <point x="168" y="571"/>
      <point x="355" y="571" type="curve" smooth="yes"/>
      <point x="489" y="571"/>
      <point x="534" y="517"/>
      <point x="534" y="350" type="curve" smooth="yes"/>
      <point x="534" y="265"/>
      <point x="523" y="151"/>
      <point x="505" y="0" type="curve"/>
      <point x="564" y="0" type="line"/>
      <point x="578" y="122"/>
      <point x="586" y="222"/>
      <point x="586" y="303" type="curve" smooth="yes"/>
      <point x="586" y="529"/>
      <point x="523" y="604"/>
      <point x="356" y="604" type="curve" smooth="yes"/>
      <point x="131" y="604"/>
      <point x="68" y="456"/>
    </contour>
  </outline>
</glyph>
<glyph name="naira.proportional" format="2">
  <advance width="761"/>
  <outline>
    <contour>
      <point x="28" y="455" type="line"/>
      <point x="158" y="455" type="line"/>
      <point x="168" y="489" type="line"/>
      <point x="36" y="489" type="line"/>
    </contour>
    <contour>
      <point x="314" y="462" type="line"/>
      <point x="556" y="460" type="line"/>
      <point x="554" y="455" type="line"/>
      <point x="691" y="455" type="line"/>
      <point x="699" y="489" type="line"/>
      <point x="321" y="489" type="line"/>
    </contour>
    <contour>
      <point x="505" y="223" type="line"/>
      <point x="657" y="223" type="line"/>
      <point x="663" y="258" type="line"/>
      <point x="513" y="258" type="line"/>
    </contour>
    <contour>
      <point x="-7" y="223" type="line"/>
      <point x="397" y="223" type="line"/>
      <point x="401" y="250" type="line"/>
      <point x="132" y="253" type="line"/>
      <point x="134" y="258" type="line"/>
      <point x="-1" y="258" type="line"/>
    </contour>
    <contour>
      <point x="-15" y="0" type="line"/>
      <point x="185" y="0" type="line"/>
      <point x="192" y="36" type="line"/>
      <point x="178" y="36" type="line" smooth="yes"/>
      <point x="146" y="36"/>
      <point x="125" y="42"/>
      <point x="125" y="48" type="curve" smooth="yes"/>
      <point x="125" y="49"/>
      <point x="125" y="49"/>
      <point x="125" y="49" type="curve" smooth="yes"/>
      <point x="227" y="696" type="line"/>
      <point x="221" y="698" type="line"/>
      <point x="438" y="0" type="line"/>
      <point x="502" y="0" type="line"/>
      <point x="602" y="633" type="line" smooth="yes"/>
      <point x="606" y="662"/>
      <point x="635" y="674"/>
      <point x="670" y="674" type="curve" smooth="yes"/>
      <point x="698" y="674" type="line"/>
      <point x="705" y="710" type="line"/>
      <point x="508" y="710" type="line"/>
      <point x="501" y="674" type="line"/>
      <point x="516" y="674" type="line" smooth="yes"/>
      <point x="548" y="674"/>
      <point x="567" y="668"/>
      <point x="567" y="662" type="curve" smooth="yes"/>
      <point x="567" y="661"/>
      <point x="567" y="661"/>
      <point x="567" y="661" type="curve" smooth="yes"/>
      <point x="467" y="35" type="line"/>
      <point x="478" y="18" type="line"/>
      <point x="263" y="710" type="line"/>
      <point x="99" y="710" type="line"/>
      <point x="92" y="674" type="line"/>
      <point x="120" y="674" type="line" smooth="yes"/>
      <point x="153" y="674"/>
      <point x="176" y="668"/>
      <point x="176" y="644" type="curve" smooth="yes"/>
      <point x="176" y="642"/>
      <point x="176" y="640"/>
      <point x="176" y="638" type="curve" smooth="yes"/>
      <point x="89" y="77" type="line" smooth="yes"/>
      <point x="84" y="48"/>
      <point x="55" y="36"/>
      <point x="20" y="36" type="curve" smooth="yes"/>
      <point x="-8" y="36" type="line"/>
    </contour>
  </outline>
</glyph>
<glyph name="nine.linprop" format="2">
  <advance width="594"/>
  <outline>
    <contour>
      <point x="13" y="26" type="line"/>
      <point x="234" y="31"/>
      <point x="371" y="119"/>
      <point x="429" y="261" type="curve" smooth="yes"/>
      <point x="449" y="308"/>
      <point x="459" y="363"/>
      <point x="459" y="423" type="curve" smooth="yes"/>
      <point x="459" y="443"/>
      <point x="458" y="463"/>
      <point x="456" y="484" type="curve" smooth="yes"/>
      <point x="440" y="636"/>
      <point x="372" y="695"/>
      <point x="263" y="695" type="curve" smooth="yes"/>
      <point x="162" y="695"/>
      <point x="106" y="637"/>
      <point x="84" y="559" type="curve" smooth="yes"/>
      <point x="78" y="534"/>
      <point x="75" y="507"/>
      <point x="75" y="479" type="curve" smooth="yes"/>
      <point x="75" y="467"/>
      <point x="75" y="454"/>
      <point x="77" y="441" type="curve" smooth="yes"/>
      <point x="84" y="368"/>
      <point x="127" y="304"/>
      <point x="224" y="304" type="curve" smooth="yes"/>
      <point x="335" y="304"/>
      <point x="387" y="363"/>
      <point x="468" y="511" type="curve"/>
      <point x="470" y="467" type="line"/>
      <point x="409" y="326"/>
      <point x="328" y="264"/>
      <point x="222" y="264" type="curve" smooth="yes"/>
      <point x="98" y="264"/>
      <point x="33" y="340"/>
      <point x="22" y="443" type="curve" smooth="yes"/>
      <point x="21" y="456"/>
      <point x="20" y="469"/>
      <point x="20" y="482" type="curve" smooth="yes"/>
      <point x="20" y="619"/>
      <point x="101" y="735"/>
      <point x="262" y="735" type="curve"/>
      <point x="400" y="735"/>
      <point x="488" y="668"/>
      <point x="507" y="489" type="curve" smooth="yes"/>
      <point x="509" y="469"/>
      <point x="510" y="448"/>
      <point x="510" y="428" type="curve" smooth="yes"/>
      <point x="510" y="189"/>
      <point x="354" y="-5"/>
      <point x="23" y="-15" type="curve"/>
    </contour>
  </outline>
</glyph>
<glyph name="nine.lintab" format="2">
  <advance width="680"/>
  <outline>
    <contour>
      <point x="255" y="735" type="curve" smooth="yes"/>
      <point x="391" y="735"/>
      <point x="474" y="670"/>
      <point x="490" y="512" type="curve" smooth="yes"/>
      <point x="493" y="484"/>
      <point x="495" y="457"/>
      <point x="495" y="429" type="curve" smooth="yes"/>
      <point x="495" y="192"/>
      <point x="378" y="-15"/>
      <point x="40" y="-15" type="curve" smooth="yes"/>
      <point x="39" y="-15"/>
      <point x="38" y="-15"/>
      <point x="38" y="-15" type="curve"/>
      <point x="34" y="24" type="line"/>
      <point x="38" y="24"/>
      <point x="41" y="24"/>
      <point x="44" y="24" type="curve" smooth="yes"/>
      <point x="267" y="24"/>
      <point x="385" y="123"/>
      <point x="426" y="279" type="curve" smooth="yes"/>
      <point x="439" y="322"/>
      <point x="445" y="370"/>
      <point x="445" y="423" type="curve" smooth="yes"/>
      <point x="445" y="451"/>
      <point x="444" y="480"/>
      <point x="440" y="510" type="curve" smooth="yes"/>
      <point x="425" y="653"/>
      <point x="354" y="695"/>
      <point x="256" y="695" type="curve" smooth="yes"/>
      <point x="161" y="695"/>
      <point x="111" y="635"/>
      <point x="90" y="564" type="curve" smooth="yes"/>
      <point x="81" y="533"/>
      <point x="77" y="500"/>
      <point x="77" y="468" type="curve" smooth="yes"/>
      <point x="77" y="456"/>
      <point x="77" y="444"/>
      <point x="79" y="432" type="curve" smooth="yes"/>
      <point x="87" y="355"/>
      <point x="134" y="305"/>
      <point x="233" y="305" type="curve" smooth="yes"/>
      <point x="329" y="305"/>
      <point x="376" y="366"/>
      <point x="454" y="495" type="curve"/>
      <point x="453" y="453" type="line"/>
      <point x="393" y="329"/>
      <point x="318" y="264"/>
      <point x="226" y="264" type="curve" smooth="yes"/>
      <point x="111" y="264"/>
      <point x="36" y="328"/>
      <point x="24" y="434" type="curve" smooth="yes"/>
      <point x="23" y="447"/>
      <point x="22" y="460"/>
      <point x="22" y="474" type="curve" smooth="yes"/>
      <point x="22" y="605"/>
      <point x="92" y="735"/>
    </contour>
  </outline>
</glyph>
<glyph name="nine.midprop" format="2">
  <advance width="594"/>
  <outline>
    <contour>
      <point x="13" y="-16" type="line"/>
      <point x="251" y="-11"/>
      <point x="392" y="90"/>
      <point x="440" y="251" type="curve" smooth="yes"/>
      <point x="453" y="291"/>
      <point x="460" y="336"/>
      <point x="460" y="385" type="curve" smooth="yes"/>
      <point x="460" y="403"/>
      <point x="459" y="422"/>
      <point x="457" y="442" type="curve" smooth="yes"/>
      <point x="441" y="594"/>
      <point x="371" y="653"/>
      <point x="263" y="653" type="curve" smooth="yes"/>
      <point x="182" y="653"/>
      <point x="129" y="616"/>
      <point x="101" y="560" type="curve" smooth="yes"/>
      <point x="83" y="526"/>
      <point x="75" y="485"/>
      <point x="75" y="440" type="curve" smooth="yes"/>
      <point x="75" y="427"/>
      <point x="76" y="413"/>
      <point x="77" y="399" type="curve" smooth="yes"/>
      <point x="85" y="326"/>
      <point x="127" y="263"/>
      <point x="224" y="263" type="curve" smooth="yes"/>
      <point x="334" y="263"/>
      <point x="386" y="321"/>
      <point x="469" y="470" type="curve"/>
      <point x="470" y="425" type="line"/>
      <point x="408" y="284"/>
      <point x="329" y="222"/>
      <point x="223" y="222" type="curve" smooth="yes"/>
      <point x="99" y="222"/>
      <point x="34" y="299"/>
      <point x="23" y="401" type="curve" smooth="yes"/>
      <point x="21" y="414"/>
      <point x="21" y="427"/>
      <point x="21" y="440" type="curve" smooth="yes"/>
      <point x="21" y="578"/>
      <point x="100" y="693"/>
      <point x="262" y="693" type="curve"/>
      <point x="399" y="693"/>
      <point x="488" y="626"/>
      <point x="507" y="447" type="curve" smooth="yes"/>
      <point x="509" y="426"/>
      <point x="510" y="406"/>
      <point x="510" y="386" type="curve" smooth="yes"/>
      <point x="510" y="146"/>
      <point x="354" y="-47"/>
      <point x="22" y="-57" type="curve"/>
    </contour>
  </outline>
</glyph>
<glyph name="one.oldprop" format="2">
  <advance width="504"/>
  <outline>
    <contour>
      <point x="242" y="70" type="curve" smooth="yes"/>
      <point x="332" y="657" type="line"/>
      <point x="290" y="657" type="line"/>
      <point x="249" y="576"/>
      <point x="189" y="554"/>
      <point x="89" y="551" type="curve"/>
      <point x="82" y="509" type="line"/>
      <point x="172" y="509"/>
      <point x="262" y="547"/>
      <point x="288" y="615" type="curve"/>
      <point x="273" y="601" type="line"/>
      <point x="193" y="70" type="line" smooth="yes"/>
      <point x="189" y="41"/>
      <point x="144" y="34"/>
      <point x="64" y="34" type="curve" smooth="yes"/>
      <point x="27" y="34" type="line"/>
      <point x="21" y="0" type="line"/>
      <point x="382" y="0" type="line"/>
      <point x="388" y="34" type="line"/>
      <point x="369" y="34" type="line" smooth="yes"/>
      <point x="286" y="34"/>
      <point x="241" y="40"/>
      <point x="241" y="67" type="curve" smooth="yes"/>
      <point x="241" y="68"/>
      <point x="241" y="69"/>
    </contour>
  </outline>
</glyph>
<glyph name="plus.sub" format="2">
  <advance width="446"/>
  <outline>
    <contour>
      <point x="219" y="241" type="line"/>
      <point x="168" y="-75" type="line"/>
      <point x="213" y="-75" type="line"/>
      <point x="264" y="241" type="line"/>
    </contour>
    <contour>
      <point x="383" y="100" type="line"/>
      <point x="54" y="100" type="line"/>
      <point x="48" y="66" type="line"/>
      <point x="377" y="66" type="line"/>
    </contour>
  </outline>
</glyph>
<glyph name="ringhalfleft" format="2">
  <advance width="530"/>
  <anchor x="202" y="566" name="_top"/>
  <outline>
    <contour>
      <point x="181" y="644" type="curve"/>
      <point x="178" y="679" type="line"/>
      <point x="131" y="679"/>
      <point x="99" y="702"/>
      <point x="95" y="744" type="curve" smooth="yes"/>
      <point x="94" y="748"/>
      <point x="94" y="752"/>
      <point x="94" y="755" type="curve" smooth="yes"/>
      <point x="94" y="797"/>
      <point x="120" y="827"/>
      <point x="173" y="827" type="curve"/>
      <point x="169" y="862" type="line"/>
      <point x="89" y="862"/>
      <point x="41" y="820"/>
      <point x="41" y="756" type="curve" smooth="yes"/>
      <point x="41" y="752"/>
      <point x="42" y="747"/>
      <point x="42" y="742" type="curve" smooth="yes"/>
      <point x="48" y="687"/>
      <point x="99" y="644"/>
    </contour>
  </outline>
</glyph>
<glyph name="seven.linprop" format="2">
  <advance width="565"/>
  <outline>
    <contour>
      <point x="232" y="673" type="line" smooth="yes"/>
      <point x="141" y="673"/>
      <point x="103" y="666"/>
      <point x="94" y="630" type="curve" smooth="yes"/>
      <point x="65" y="510" type="line"/>
      <point x="19" y="510" type="line"/>
      <point x="50" y="710" type="line"/>
      <point x="542" y="710" type="line"/>
      <point x="534" y="667" type="line"/>
      <point x="364" y="518"/>
      <point x="238" y="324"/>
      <point x="184" y="0" type="curve"/>
      <point x="123" y="0" type="line"/>
      <point x="189" y="344"/>
      <point x="353" y="545"/>
      <point x="511" y="692" type="curve"/>
      <point x="515" y="673" type="line"/>
    </contour>
  </outline>
</glyph>
<glyph name="seven.lintab" format="2">
  <advance width="680"/>
  <outline>
    <contour>
      <point x="247" y="673" type="line" smooth="yes"/>
      <point x="155" y="673"/>
      <point x="117" y="666"/>
      <point x="108" y="630" type="curve" smooth="yes"/>
      <point x="79" y="510" type="line"/>
      <point x="32" y="510" type="line"/>
      <point x="64" y="710" type="line"/>
      <point x="553" y="710" type="line"/>
      <point x="544" y="667" type="line"/>
      <point x="377" y="514"/>
      <point x="239" y="313"/>
      <point x="194" y="0" type="curve"/>
      <point x="134" y="0" type="line"/>
      <point x="189" y="336"/>
      <point x="368" y="544"/>
      <point x="521" y="692" type="curve"/>
      <point x="526" y="673" type="line"/>
    </contour>
  </outline>
</glyph>
<glyph name="seven.midprop" format="2">
  <advance width="565"/>
  <outline>
    <contour>
      <point x="235" y="639" type="line" smooth="yes"/>
      <point x="143" y="639"/>
      <point x="105" y="632"/>
      <point x="96" y="596" type="curve" smooth="yes"/>
      <point x="68" y="475" type="line"/>
      <point x="21" y="475" type="line"/>
      <point x="53" y="675" type="line"/>
      <point x="545" y="675" type="line"/>
      <point x="536" y="633" type="line"/>
      <point x="368" y="486"/>
      <point x="240" y="293"/>
      <point x="187" y="-37" type="curve"/>
      <point x="126" y="-37" type="line"/>
      <point x="191" y="312"/>
      <point x="356" y="513"/>
      <point x="514" y="658" type="curve"/>
      <point x="518" y="639" type="line"/>
    </contour>
  </outline>
</glyph>
<glyph name="seven.oldprop" format="2">
  <advance width="566"/>
  <outline>
    <contour>
      <point x="235" y="620" type="line" smooth="yes"/>
      <point x="144" y="620"/>
      <point x="105" y="613"/>
      <point x="96" y="577" type="curve" smooth="yes"/>
      <point x="68" y="457" type="line"/>
      <point x="22" y="457" type="line"/>
      <point x="53" y="657" type="line"/>
      <point x="545" y="657" type="line"/>
      <point x="536" y="614" type="line"/>
      <point x="368" y="468"/>
      <point x="241" y="274"/>
      <point x="187" y="-59" type="curve"/>
      <point x="126" y="-59" type="line"/>
      <point x="191" y="294"/>
      <point x="356" y="495"/>
      <point x="514" y="639" type="curve"/>
      <point x="519" y="620" type="line"/>
    </contour>
  </outline>
</glyph>
<glyph name="seven.oldtab" format="2">
  <advance width="680"/>
  <outline>
    <contour>
      <point x="247" y="620" type="line" smooth="yes"/>
      <point x="156" y="620"/>
      <point x="118" y="613"/>
      <point x="108" y="577" type="curve" smooth="yes"/>
      <point x="79" y="457" type="line"/>
      <point x="32" y="457" type="line"/>
      <point x="64" y="657" type="line"/>
      <point x="554" y="657" type="line"/>
      <point x="545" y="614" type="line"/>
      <point x="380" y="461"/>
      <point x="240" y="255"/>
      <point x="191" y="-59" type="curve"/>
      <point x="130" y="-59" type="line"/>
      <point x="189" y="275"/>
      <point x="370" y="494"/>
      <point x="523" y="638" type="curve"/>
      <point x="528" y="620" type="line"/>
    </contour>
  </outline>
</glyph>
<glyph name="slash.uc" format="2">
  <advance width="437"/>
  <outline>
    <contour>
      <point x="408" y="760" type="line"/>
      <point x="-62" y="-60" type="line"/>
      <point x="-13" y="-60" type="line"/>
      <point x="458" y="760" type="line"/>
    </contour>
  </outline>
</glyph>
<glyph name="thai:baht.proportional" format="2">
  <advance width="683"/>
  <outline>
    <contour>
      <point x="367" y="790" type="line"/>
      <point x="350" y="689" type="line"/>
      <point x="350" y="673" type="line"/>
      <point x="250" y="33" type="line"/>
      <point x="246" y="23" type="line"/>
      <point x="224" y="-110" type="line"/>
      <point x="265" y="-110" type="line"/>
      <point x="285" y="25" type="line"/>
      <point x="284" y="37" type="line"/>
      <point x="385" y="675" type="line"/>
      <point x="391" y="686" type="line"/>
      <point x="407" y="790" type="line"/>
    </contour>
    <contour>
      <point x="387" y="371" type="line"/>
      <point x="521" y="379"/>
      <point x="583" y="436"/>
      <point x="583" y="530" type="curve" smooth="yes"/>
      <point x="583" y="538"/>
      <point x="583" y="546"/>
      <point x="582" y="555" type="curve" smooth="yes"/>
      <point x="574" y="631"/>
      <point x="497" y="700"/>
      <point x="348" y="700" type="curve" smooth="yes"/>
      <point x="75" y="700" type="line"/>
      <point x="68" y="664" type="line"/>
      <point x="80" y="664" type="line" smooth="yes"/>
      <point x="117" y="664"/>
      <point x="134" y="658"/>
      <point x="134" y="636" type="curve" smooth="yes"/>
      <point x="134" y="633"/>
      <point x="133" y="631"/>
      <point x="133" y="628" type="curve" smooth="yes"/>
      <point x="47" y="82" type="line" smooth="yes"/>
      <point x="43" y="53"/>
      <point x="20" y="46"/>
      <point x="-16" y="46" type="curve" smooth="yes"/>
      <point x="-28" y="46" type="line"/>
      <point x="-34" y="10" type="line"/>
      <point x="320" y="10" type="line" smooth="yes"/>
      <point x="496" y="10"/>
      <point x="571" y="93"/>
      <point x="571" y="198" type="curve" smooth="yes"/>
      <point x="571" y="206"/>
      <point x="570" y="215"/>
      <point x="570" y="223" type="curve"/>
      <point x="563" y="287"/>
      <point x="506" y="357"/>
      <point x="397" y="375" type="curve"/>
      <point x="414" y="359" type="line"/>
      <point x="418" y="382" type="line"/>
    </contour>
    <contour>
      <point x="146" y="390" type="line"/>
      <point x="189" y="662" type="line"/>
      <point x="354" y="662" type="line"/>
      <point x="468" y="662"/>
      <point x="522" y="620"/>
      <point x="529" y="552" type="curve" smooth="yes"/>
      <point x="530" y="544"/>
      <point x="530" y="535"/>
      <point x="530" y="527" type="curve" smooth="yes"/>
      <point x="530" y="463"/>
      <point x="501" y="390"/>
      <point x="355" y="390" type="curve" smooth="yes"/>
    </contour>
    <contour>
      <point x="92" y="47" type="line"/>
      <point x="140" y="359" type="line"/>
      <point x="335" y="359" type="line" smooth="yes"/>
      <point x="463" y="359"/>
      <point x="508" y="290"/>
      <point x="515" y="221" type="curve" smooth="yes"/>
      <point x="516" y="209"/>
      <point x="517" y="199"/>
      <point x="517" y="188" type="curve" smooth="yes"/>
      <point x="517" y="86"/>
      <point x="455" y="47"/>
      <point x="312" y="47" type="curve" smooth="yes"/>
    </contour>
  </outline>
</glyph>
<glyph name="three.midprop" format="2">
  <advance width="592"/>
  <outline>
    <contour>
      <point x="288" y="341" type="line"/>
      <point x="424" y="346"/>
      <point x="506" y="408"/>
      <point x="506" y="513" type="curve" smooth="yes"/>
      <point x="506" y="521"/>
      <point x="505" y="528"/>
      <point x="505" y="536" type="curve" smooth="yes"/>
      <point x="495" y="630"/>
      <point x="416" y="693"/>
      <point x="281" y="693" type="curve" smooth="yes"/>
      <point x="199" y="693"/>
      <point x="128" y="664"/>
      <point x="105" y="650" type="curve"/>
      <point x="80" y="489" type="line"/>
      <point x="137" y="489" type="line"/>
      <point x="160" y="637" type="line"/>
      <point x="134" y="635"/>
      <point x="115" y="624"/>
      <point x="115" y="617" type="curve" smooth="yes"/>
      <point x="115" y="615"/>
      <point x="116" y="614"/>
      <point x="119" y="613" type="curve"/>
      <point x="141" y="622"/>
      <point x="190" y="652"/>
      <point x="283" y="652" type="curve" smooth="yes"/>
      <point x="381" y="652"/>
      <point x="440" y="608"/>
      <point x="448" y="529" type="curve" smooth="yes"/>
      <point x="449" y="522"/>
      <point x="450" y="515"/>
      <point x="450" y="508" type="curve" smooth="yes"/>
      <point x="450" y="414"/>
      <point x="378" y="360"/>
      <point x="255" y="360" type="curve"/>
      <point x="149" y="360" type="line"/>
      <point x="142" y="322" type="line"/>
      <point x="234" y="322" type="line"/>
      <point x="370" y="322"/>
      <point x="429" y="248"/>
      <point x="438" y="165" type="curve" smooth="yes"/>
      <point x="439" y="157"/>
      <point x="439" y="149"/>
      <point x="439" y="141" type="curve" smooth="yes"/>
      <point x="439" y="46"/>
      <point x="372" y="-5"/>
      <point x="259" y="-5" type="curve" smooth="yes"/>
      <point x="129" y="-5"/>
      <point x="65" y="47"/>
      <point x="19" y="148" type="curve"/>
      <point x="-28" y="131" type="line"/>
      <point x="16" y="29"/>
      <point x="99" y="-46"/>
      <point x="263" y="-46" type="curve" smooth="yes"/>
      <point x="398" y="-46"/>
      <point x="496" y="20"/>
      <point x="496" y="140" type="curve" smooth="yes"/>
      <point x="496" y="148"/>
      <point x="496" y="156"/>
      <point x="495" y="165" type="curve" smooth="yes"/>
      <point x="484" y="267"/>
      <point x="412" y="325"/>
      <point x="289" y="339" type="curve"/>
      <point x="298" y="323" type="line"/>
      <point x="303" y="354" type="line"/>
    </contour>
  </outline>
</glyph>
<glyph name="three.oldtab" format="2">
  <advance width="680"/>
  <outline>
    <contour>
      <point x="253" y="-72" type="curve" smooth="yes"/>
      <point x="405" y="-72"/>
      <point x="484" y="17"/>
      <point x="484" y="120" type="curve" smooth="yes"/>
      <point x="484" y="128"/>
      <point x="484" y="135"/>
      <point x="483" y="142" type="curve" smooth="yes"/>
      <point x="474" y="228"/>
      <point x="417" y="285"/>
      <point x="285" y="307" type="curve"/>
      <point x="286" y="292" type="line"/>
      <point x="292" y="322" type="line"/>
      <point x="282" y="311" type="line"/>
      <point x="410" y="316"/>
      <point x="497" y="370"/>
      <point x="497" y="486" type="curve" smooth="yes"/>
      <point x="497" y="495"/>
      <point x="496" y="504"/>
      <point x="495" y="513" type="curve" smooth="yes"/>
      <point x="486" y="604"/>
      <point x="402" y="667"/>
      <point x="275" y="667" type="curve" smooth="yes"/>
      <point x="201" y="667"/>
      <point x="135" y="641"/>
      <point x="109" y="629" type="curve"/>
      <point x="83" y="461" type="line"/>
      <point x="140" y="461" type="line"/>
      <point x="164" y="606" type="line"/>
      <point x="139" y="603"/>
      <point x="121" y="592"/>
      <point x="121" y="589" type="curve" smooth="yes"/>
      <point x="121" y="589"/>
      <point x="122" y="589"/>
      <point x="122" y="589" type="curve" smooth="yes"/>
      <point x="123" y="589"/>
      <point x="123" y="589"/>
      <point x="124" y="589" type="curve"/>
      <point x="142" y="597"/>
      <point x="196" y="626"/>
      <point x="276" y="626" type="curve" smooth="yes"/>
      <point x="372" y="626"/>
      <point x="434" y="588"/>
      <point x="442" y="516" type="curve" smooth="yes"/>
      <point x="443" y="506"/>
      <point x="443" y="496"/>
      <point x="443" y="487" type="curve" smooth="yes"/>
      <point x="443" y="373"/>
      <point x="365" y="328"/>
      <point x="237" y="328" type="curve"/>
      <point x="151" y="328" type="line"/>
      <point x="144" y="290" type="line"/>
      <point x="225" y="290" type="line" smooth="yes"/>
      <point x="351" y="290"/>
      <point x="415" y="239"/>
      <point x="425" y="142" type="curve" smooth="yes"/>
      <point x="426" y="134"/>
      <point x="426" y="127"/>
      <point x="426" y="119" type="curve" smooth="yes"/>
      <point x="426" y="26"/>
      <point x="362" y="-32"/>
      <point x="251" y="-32" type="curve" smooth="yes"/>
      <point x="116" y="-32"/>
      <point x="67" y="36"/>
      <point x="37" y="110" type="curve"/>
      <point x="-11" y="97" type="line"/>
      <point x="19" y="6"/>
      <point x="102" y="-72"/>
    </contour>
  </outline>
</glyph>
<glyph name="uni20B8.proportional" format="2">
  <advance width="651"/>
  <outline>
    <contour>
      <point x="212" y="72" type="line" smooth="yes"/>
      <point x="208" y="43"/>
      <point x="163" y="36"/>
      <point x="112" y="36" type="curve" smooth="yes"/>
      <point x="91" y="36" type="line"/>
      <point x="84" y="0" type="line"/>
      <point x="365" y="0" type="line"/>
      <point x="371" y="36" type="line"/>
      <point x="350" y="36" type="line" smooth="yes"/>
      <point x="301" y="36"/>
      <point x="260" y="42"/>
      <point x="260" y="68" type="curve" smooth="yes"/>
      <point x="260" y="69"/>
      <point x="260" y="71"/>
      <point x="260" y="72" type="curve" smooth="yes"/>
      <point x="326" y="504" type="line"/>
      <point x="390" y="504" type="line" smooth="yes"/>
      <point x="478" y="504"/>
      <point x="512" y="488"/>
      <point x="512" y="453" type="curve" smooth="yes"/>
      <point x="512" y="452"/>
      <point x="512" y="452"/>
      <point x="512" y="451" type="curve" smooth="yes"/>
      <point x="506" y="329" type="line"/>
      <point x="543" y="329" type="line"/>
      <point x="577" y="540" type="line"/>
      <point x="40" y="540" type="line"/>
      <point x="7" y="329" type="line"/>
      <point x="43" y="329" type="line"/>
      <point x="78" y="451" type="line" smooth="yes"/>
      <point x="88" y="487"/>
      <point x="127" y="504"/>
      <point x="217" y="504" type="curve" smooth="yes"/>
      <point x="279" y="504" type="line"/>
    </contour>
    <contour>
      <point x="71" y="728" type="line"/>
      <point x="65" y="692" type="line"/>
      <point x="601" y="692" type="line"/>
      <point x="607" y="728" type="line"/>
    </contour>
  </outline>
</glyph>
<glyph name="yen.proportional" format="2">
  <advance width="671"/>
  <outline>
    <contour>
      <point x="34" y="211" type="line"/>
      <point x="28" y="176" type="line"/>
      <point x="518" y="176" type="line"/>
      <point x="524" y="211" type="line"/>
    </contour>
    <contour>
      <point x="60" y="364" type="line"/>
      <point x="53" y="329" type="line"/>
      <point x="543" y="329" type="line"/>
      <point x="550" y="364" type="line"/>
    </contour>
    <contour>
      <point x="315" y="325" type="line"/>
      <point x="552" y="627" type="line" smooth="yes"/>
      <point x="580" y="660"/>
      <point x="600" y="674"/>
      <point x="627" y="674" type="curve" smooth="yes"/>
      <point x="635" y="674" type="line"/>
      <point x="642" y="710" type="line"/>
      <point x="461" y="710" type="line"/>
      <point x="454" y="674" type="line"/>
      <point x="460" y="674" type="line" smooth="yes"/>
      <point x="491" y="674"/>
      <point x="521" y="665"/>
      <point x="521" y="653" type="curve" smooth="yes"/>
      <point x="521" y="652"/>
      <point x="521" y="652"/>
      <point x="521" y="651" type="curve"/>
      <point x="298" y="367" type="line"/>
      <point x="307" y="377" type="line"/>
      <point x="166" y="663" type="line"/>
      <point x="169" y="670"/>
      <point x="197" y="674"/>
      <point x="228" y="674" type="curve" smooth="yes"/>
      <point x="241" y="674" type="line"/>
      <point x="248" y="710" type="line"/>
      <point x="66" y="710" type="line"/>
      <point x="59" y="674" type="line"/>
      <point x="67" y="674" type="line" smooth="yes"/>
      <point x="96" y="674"/>
      <point x="111" y="669"/>
      <point x="125" y="640" type="curve" smooth="yes"/>
      <point x="279" y="326" type="line"/>
    </contour>
    <contour>
      <point x="328" y="375" type="line"/>
      <point x="281" y="375" type="line"/>
      <point x="233" y="72" type="line" smooth="yes"/>
      <point x="229" y="43"/>
      <point x="189" y="36"/>
      <point x="135" y="36" type="curve" smooth="yes"/>
      <point x="110" y="36" type="line"/>
      <point x="103" y="0" type="line"/>
      <point x="385" y="0" type="line"/>
      <point x="392" y="36" type="line"/>
      <point x="368" y="36" type="line" smooth="yes"/>
      <point x="317" y="36"/>
      <point x="280" y="42"/>
      <point x="280" y="68" type="curve" smooth="yes"/>
      <point x="280" y="69"/>
      <point x="280" y="71"/>
      <point x="280" y="72" type="curve" smooth="yes"/>
    </contour>
  </outline>
</glyph>
